<?xml version="1.0" encoding="UTF-8" standalone="no"?>
<!-- Created with Inkscape (http://www.inkscape.org/) -->

<svg
   width="1060.1243mm"
   height="1054.0734mm"
   viewBox="0 0 1060.1243 1054.0734"
   version="1.1"
   id="svg1"
   inkscape:version="1.4.2 (ebf0e940, 2025-05-08)"
   sodipodi:docname="arkagme_logo_1.svg"
   inkscape:export-filename="arkagme_logo_final.png"
   inkscape:export-xdpi="96"
   inkscape:export-ydpi="96"
   xmlns:inkscape="http://www.inkscape.org/namespaces/inkscape"
   xmlns:sodipodi="http://sodipodi.sourceforge.net/DTD/sodipodi-0.dtd"
   xmlns:xlink="http://www.w3.org/1999/xlink"
   xmlns="http://www.w3.org/2000/svg"
   xmlns:svg="http://www.w3.org/2000/svg">
  <sodipodi:namedview
     id="namedview1"
     pagecolor="#ffffff"
     bordercolor="#000000"
     borderopacity="0.25"
     inkscape:showpageshadow="2"
     inkscape:pageopacity="0.0"
     inkscape:pagecheckerboard="0"
     inkscape:deskcolor="#d1d1d1"
     inkscape:document-units="mm"
     inkscape:zoom="0.097984433"
     inkscape:cx="2005.4206"
     inkscape:cy="1831.9236"
     inkscape:window-width="1440"
     inkscape:window-height="872"
     inkscape:window-x="0"
     inkscape:window-y="28"
     inkscape:window-maximized="0"
     inkscape:current-layer="layer1"
     inkscape:export-bgcolor="#000000ff" />
  <defs
     id="defs1">
    <linearGradient
       id="linearGradient528"
       inkscape:collect="always">
      <stop
         style="stop-color:#e29715;stop-opacity:1;"
         offset="0"
         id="stop529" />
      <stop
         style="stop-color:#e29715;stop-opacity:1;"
         offset="0.22875817"
         id="stop531" />
      <stop
         style="stop-color:#d67919;stop-opacity:1;"
         offset="0.22875817"
         id="stop532" />
      <stop
         style="stop-color:#d67919;stop-opacity:1;"
         offset="0.57080615"
         id="stop533" />
      <stop
         style="stop-color:#ca312f;stop-opacity:0.99215686;"
         offset="0.57080615"
         id="stop534" />
      <stop
         style="stop-color:#ca312f;stop-opacity:0.99215686;"
         offset="0.77995646"
         id="stop535" />
      <stop
         style="stop-color:#bd2469;stop-opacity:1;"
         offset="0.78213507"
         id="stop536" />
      <stop
         style="stop-color:#bd246f;stop-opacity:0.98823529;"
         offset="1"
         id="stop530" />
    </linearGradient>
    <linearGradient
       id="linearGradient520"
       inkscape:collect="always">
      <stop
         style="stop-color:#e29715;stop-opacity:1;"
         offset="0"
         id="stop521" />
      <stop
         style="stop-color:#e29715;stop-opacity:1;"
         offset="0.32461873"
         id="stop523" />
      <stop
         style="stop-color:#d67919;stop-opacity:1;"
         offset="0.32461873"
         id="stop524" />
      <stop
         style="stop-color:#d67919;stop-opacity:1;"
         offset="0.5446623"
         id="stop525" />
      <stop
         style="stop-color:#ca312f;stop-opacity:0.99215686;"
         offset="0.5446623"
         id="stop526" />
      <stop
         style="stop-color:#ca312f;stop-opacity:0.99215686;"
         offset="0.69716775"
         id="stop527" />
      <stop
         style="stop-color:#bd2469;stop-opacity:1;"
         offset="0.69716775"
         id="stop528" />
      <stop
         style="stop-color:#bd2469;stop-opacity:1;"
         offset="1"
         id="stop522" />
    </linearGradient>
    <linearGradient
       id="linearGradient508"
       inkscape:collect="always">
      <stop
         style="stop-color:#e29715;stop-opacity:1;"
         offset="0"
         id="stop509" />
      <stop
         style="stop-color:#e29715;stop-opacity:1;"
         offset="0.05882353"
         id="stop511" />
      <stop
         style="stop-color:#d67919;stop-opacity:1;"
         offset="0.05882353"
         id="stop512" />
      <stop
         style="stop-color:#d67919;stop-opacity:1;"
         offset="0.38779956"
         id="stop513" />
      <stop
         style="stop-color:#ca312f;stop-opacity:0.99215686;"
         offset="0.38779956"
         id="stop514" />
      <stop
         style="stop-color:#ca312f;stop-opacity:0.99215686;"
         offset="0.63398695"
         id="stop515" />
      <stop
         style="stop-color:#bd2469;stop-opacity:1;"
         offset="0.63398695"
         id="stop516" />
      <stop
         style="stop-color:#bd2469;stop-opacity:1;"
         offset="0.88235301"
         id="stop517" />
      <stop
         style="stop-color:#2381a6;stop-opacity:1;"
         offset="0.88235301"
         id="stop520" />
      <stop
         style="stop-color:#2381a6;stop-opacity:1;"
         offset="1"
         id="stop510" />
    </linearGradient>
    <linearGradient
       id="linearGradient500"
       inkscape:collect="always">
      <stop
         style="stop-color:#e29715;stop-opacity:1;"
         offset="0"
         id="stop501" />
      <stop
         style="stop-color:#e29715;stop-opacity:1;"
         offset="0.22657952"
         id="stop503" />
      <stop
         style="stop-color:#d67919;stop-opacity:1;"
         offset="0.22657952"
         id="stop504" />
      <stop
         style="stop-color:#d67919;stop-opacity:1;"
         offset="0.58169937"
         id="stop505" />
      <stop
         style="stop-color:#ca312f;stop-opacity:0.99047619;"
         offset="0.58169937"
         id="stop506" />
      <stop
         style="stop-color:#ca312f;stop-opacity:0.99215686;"
         offset="0.89324617"
         id="stop507" />
      <stop
         style="stop-color:#bd2469;stop-opacity:1;"
         offset="0.89324617"
         id="stop508" />
      <stop
         style="stop-color:#bd2469;stop-opacity:1;"
         offset="1"
         id="stop502" />
    </linearGradient>
    <linearGradient
       id="linearGradient489"
       inkscape:collect="always">
      <stop
         style="stop-color:#779128;stop-opacity:1;"
         offset="0"
         id="stop489" />
      <stop
         style="stop-color:#779128;stop-opacity:1;"
         offset="0.16993465"
         id="stop491" />
      <stop
         style="stop-color:#e29715;stop-opacity:1;"
         offset="0.16993465"
         id="stop492" />
      <stop
         style="stop-color:#e29715;stop-opacity:1;"
         offset="0.47494555"
         id="stop493" />
      <stop
         style="stop-color:#d67919;stop-opacity:1;"
         offset="0.47494555"
         id="stop494" />
      <stop
         style="stop-color:#d67919;stop-opacity:1;"
         offset="0.70588237"
         id="stop495" />
      <stop
         style="stop-color:#ca312f;stop-opacity:1;"
         offset="0.70588237"
         id="stop498" />
      <stop
         style="stop-color:#ca312f;stop-opacity:0.97777778;"
         offset="0.90196079"
         id="stop499" />
      <stop
         style="stop-color:#bd2469;stop-opacity:0.90793651;"
         offset="0.90196079"
         id="stop500" />
      <stop
         style="stop-color:#bd2469;stop-opacity:1;"
         offset="1"
         id="stop490" />
    </linearGradient>
    <linearGradient
       id="linearGradient480"
       inkscape:collect="always">
      <stop
         style="stop-color:#e29715;stop-opacity:1;"
         offset="0"
         id="stop481" />
      <stop
         style="stop-color:#e29715;stop-opacity:1;"
         offset="0.18736383"
         id="stop483" />
      <stop
         style="stop-color:#d67919;stop-opacity:1;"
         offset="0.18736383"
         id="stop484" />
      <stop
         style="stop-color:#d67919;stop-opacity:1;"
         offset="0.57734203"
         id="stop485" />
      <stop
         style="stop-color:#ca312f;stop-opacity:1;"
         offset="0.57734203"
         id="stop486" />
      <stop
         style="stop-color:#ca312f;stop-opacity:1;"
         offset="0.99128538"
         id="stop487" />
      <stop
         style="stop-color:#bd2469;stop-opacity:1;"
         offset="0.99128538"
         id="stop488" />
      <stop
         style="stop-color:#bd2469;stop-opacity:1;"
         offset="1"
         id="stop482" />
    </linearGradient>
    <linearGradient
       id="linearGradient472"
       inkscape:collect="always">
      <stop
         style="stop-color:#779128;stop-opacity:1;"
         offset="0"
         id="stop472" />
      <stop
         style="stop-color:#84ad0b;stop-opacity:1;"
         offset="0.28540304"
         id="stop474" />
      <stop
         style="stop-color:#d67519;stop-opacity:1;"
         offset="0.28540304"
         id="stop475" />
      <stop
         style="stop-color:#d3751c;stop-opacity:1;"
         offset="0.54248369"
         id="stop477" />
      <stop
         style="stop-color:#ca312f;stop-opacity:1;"
         offset="0.54248369"
         id="stop478" />
      <stop
         style="stop-color:#ca213f;stop-opacity:1;"
         offset="0.9041394"
         id="stop479" />
      <stop
         style="stop-color:#bd2469;stop-opacity:1;"
         offset="0.9041394"
         id="stop480" />
      <stop
         style="stop-color:#bd2469;stop-opacity:1;"
         offset="1"
         id="stop473" />
    </linearGradient>
    <linearGradient
       inkscape:collect="always"
       xlink:href="#linearGradient472"
       id="linearGradient473"
       x1="157.59457"
       y1="377.33282"
       x2="157.59457"
       y2="459.18176"
       gradientUnits="userSpaceOnUse"
       gradientTransform="matrix(1.1733474,0,0,1.2979438,-25.674009,-44.981684)" />
    <linearGradient
       inkscape:collect="always"
       xlink:href="#linearGradient480"
       id="linearGradient482"
       x1="238.80292"
       y1="382.90723"
       x2="238.80292"
       y2="450.7663"
       gradientUnits="userSpaceOnUse"
       gradientTransform="matrix(1.1733474,0,0,1.2979438,-25.674009,-44.981684)" />
    <linearGradient
       inkscape:collect="always"
       xlink:href="#linearGradient489"
       id="linearGradient490"
       x1="317.72598"
       y1="333.56964"
       x2="320.004"
       y2="460.62054"
       gradientUnits="userSpaceOnUse"
       gradientTransform="matrix(1.1733474,0,0,1.2979438,-25.674009,-44.981684)" />
    <linearGradient
       inkscape:collect="always"
       xlink:href="#linearGradient500"
       id="linearGradient502"
       x1="405.08777"
       y1="374.70981"
       x2="403.61322"
       y2="455.77469"
       gradientUnits="userSpaceOnUse"
       gradientTransform="matrix(1.1733474,0,0,1.2979438,-25.674009,-44.981684)" />
    <linearGradient
       inkscape:collect="always"
       xlink:href="#linearGradient508"
       id="linearGradient510"
       x1="499.89941"
       y1="388.17963"
       x2="499.89941"
       y2="476.88556"
       gradientUnits="userSpaceOnUse"
       gradientTransform="matrix(1.1733474,0,0,1.2979438,-25.674009,-44.981684)" />
    <linearGradient
       inkscape:collect="always"
       xlink:href="#linearGradient520"
       id="linearGradient522"
       x1="625.2926"
       y1="350.46469"
       x2="625.2926"
       y2="483.75882"
       gradientUnits="userSpaceOnUse"
       gradientTransform="matrix(1.1733474,0,0,1.2979438,-25.674009,-44.981684)" />
    <linearGradient
       inkscape:collect="always"
       xlink:href="#linearGradient528"
       id="linearGradient530"
       x1="746.36816"
       y1="373.31284"
       x2="746.36816"
       y2="463.60489"
       gradientUnits="userSpaceOnUse"
       gradientTransform="matrix(1.1733474,0,0,1.2979438,-25.674009,-44.981684)" />
  </defs>
  <g
     inkscape:label="Layer 1"
     inkscape:groupmode="layer"
     id="layer1"
     transform="translate(25.937272,15.386138)">
    <rect
       style="fill:#000000;fill-rule:evenodd;stroke:none;stroke-width:1.13725"
       id="rect1"
       width="1058.9871"
       height="1052.9362"
       x="-25.368647"
       y="-14.817513" />
    <path
       id="path452"
       style="font-weight:600;font-size:176.238px;font-family:'Neue Haas Grotesk Display Pro';-inkscape-font-specification:'Neue Haas Grotesk Display Pro, Semi-Bold';fill:url(#linearGradient530);fill-rule:evenodd;stroke:none;stroke-width:1.37673;stroke-opacity:1"
       d="m 852.76333,560.11198 c -17.09451,0 -30.53576,-5.79493 -40.32375,-17.38477 -9.78798,-11.74236 -14.68196,-26.68716 -14.68196,-44.83442 0,-17.53727 4.89398,-32.17708 14.68196,-43.91943 9.78799,-11.89484 22.33316,-17.77658 37.6355,-17.77658 16.68093,0 29.57075,6.33923 38.66943,19.14906 9.09869,12.80984 13.64804,29.96586 13.64804,51.46808 h -76.92529 c 1.10286,9.30238 3.92898,16.54603 8.47833,21.73097 4.54933,5.03243 10.75299,7.54865 18.61095,7.54865 10.33942,0 17.16344,-4.80369 20.47205,-14.41106 h 27.70965 c -2.06789,10.97986 -7.30653,20.12974 -15.71593,27.44964 -8.40939,7.31991 -19.16238,10.97986 -32.25898,10.97986 z m -2.27467,-99.96245 c -13.64804,0 -21.85065,8.38739 -24.60783,25.16217 h 47.14776 c -0.41357,-7.4724 -2.68824,-13.49607 -6.82401,-18.07101 -4.13577,-4.72743 -9.37441,-7.09116 -15.71592,-7.09116 z" />
    <path
       style="font-weight:600;font-size:176.238px;font-family:'Neue Haas Grotesk Display Pro';-inkscape-font-specification:'Neue Haas Grotesk Display Pro, Semi-Bold';fill:url(#linearGradient522);fill-rule:evenodd;stroke:none;stroke-width:1.37673;stroke-opacity:1"
       d="M 630.46584,556.68078 V 439.33355 h 27.08928 v 15.78354 h 0.62037 c 6.75509,-12.65733 17.02558,-18.986 30.81147,-18.986 6.61722,0 12.47623,1.90623 17.57702,5.71868 5.23863,3.65995 9.16762,8.61614 11.78694,14.86856 h 0.41357 c 7.7201,-13.72482 18.33524,-20.58724 31.84542,-20.58724 11.02872,0 19.57597,3.7362 25.64176,11.20861 6.20365,7.31989 9.30548,17.46101 9.30548,30.42334 v 78.91774 h -28.12322 v -73.65655 c 0,-13.41983 -5.44543,-20.12974 -16.33629,-20.12974 -5.92793,0 -10.61514,2.36372 -14.06161,7.09116 -3.30862,4.57494 -4.96292,10.75111 -4.96292,18.52851 v 68.16662 h -28.12323 v -73.65655 c 0,-13.41983 -5.44542,-20.12974 -16.33628,-20.12974 -5.65221,0 -10.2705,2.36372 -13.85483,7.09116 -3.44647,4.57494 -5.16971,10.75111 -5.16971,18.52851 v 68.16662 z"
       id="path451" />
    <path
       id="path449"
       style="font-weight:600;font-size:176.238px;font-family:'Neue Haas Grotesk Display Pro';-inkscape-font-specification:'Neue Haas Grotesk Display Pro, Semi-Bold';fill:url(#linearGradient510);fill-rule:evenodd;stroke:none;stroke-width:1.37673"
       d="m 561.39864,596.7115 c -14.33733,0 -25.84856,-3.20245 -34.53366,-9.60738 -8.54726,-6.40492 -13.57911,-15.40229 -15.09555,-26.99214 h 27.91643 c 2.75718,8.69238 9.85692,13.03857 21.2992,13.03857 15.71592,0 23.57388,-8.15864 23.57388,-24.47592 V 535.8648 h -0.62036 c -7.30652,9.14988 -16.54307,13.72482 -27.70965,13.72482 -12.54516,0 -23.50495,-5.10868 -32.87936,-15.32606 -9.23654,-10.21737 -13.85482,-23.78969 -13.85482,-40.71696 0,-17.38478 4.27363,-31.26211 12.82088,-41.63196 8.54726,-10.52237 19.57597,-15.78355 33.08614,-15.78355 12.82089,0 22.60887,5.18494 29.36396,15.5548 h 0.41358 v -12.35234 h 27.08928 v 108.42608 c 0,15.2498 -4.2047,27.14465 -12.61409,35.68454 -8.54726,8.84489 -21.29921,13.26733 -38.25586,13.26733 z m -0.41358,-72.05531 c 8.4094,0 14.68198,-2.97371 18.81775,-8.92114 4.13577,-5.94742 6.20365,-13.57233 6.20365,-22.8747 0,-9.14988 -2.20574,-16.69853 -6.61723,-22.64595 -4.27363,-6.09992 -10.47728,-9.14988 -18.61096,-9.14988 -7.16866,0 -12.95873,2.89746 -17.37022,8.69238 -4.27363,5.79493 -6.41044,13.57232 -6.41044,23.3322 0,9.91237 2.13681,17.68976 6.41044,23.3322 4.41149,5.48992 10.2705,8.23489 17.57701,8.23489 z" />
    <path
       id="path447"
       style="font-weight:600;font-size:176.238px;font-family:'Neue Haas Grotesk Display Pro';-inkscape-font-specification:'Neue Haas Grotesk Display Pro, Semi-Bold';fill:url(#linearGradient502);fill-opacity:1;fill-rule:evenodd;stroke:none;stroke-width:1.37673"
       d="m 471.06982,556.89455 c -1.37859,-1.98248 -0.0376,-6.54244 -0.86473,-13.25236 l 0.64967,-0.85508 c -3.03289,5.03242 -7.95619,9.77621 -12.6434,12.52118 -4.6872,2.74496 -11.2355,4.11744 -19.64489,4.11744 -11.16658,0 -20.12741,-3.12621 -26.8825,-9.37863 -6.75509,-6.25241 -10.13264,-15.09729 -10.13264,-26.53464 0,-11.89485 3.7222,-20.58725 11.16659,-26.07717 7.44438,-5.64242 17.92166,-9.53113 31.43183,-11.6661 9.92585,-1.52498 16.68094,-3.04996 20.26527,-4.57494 3.58433,-1.67748 5.37649,-4.57493 5.37649,-8.69238 0,-4.26994 -1.51645,-7.6249 -4.54934,-10.06487 -3.03291,-2.59247 -7.44439,-3.8887 -13.23446,-3.8887 -12.82088,0 -19.64491,5.48992 -20.47206,16.46979 h -25.0214 c 0.41358,-11.13236 4.48043,-20.3585 12.20053,-27.67839 7.7201,-7.31991 18.88667,-10.97987 33.49971,-10.97987 29.77753,0 44.6663,14.41107 44.6663,43.2332 V 539.296 c 0,8.84488 0.47186,7.20415 0.61416,16.66858 l 0.1341,1.17006 z m -25.67934,-19.19978 c 7.7201,0 13.78589,-2.21122 18.19737,-6.63366 4.54935,-4.42245 6.82403,-9.68363 6.82403,-15.78355 v -17.61352 c -3.03291,1.98246 -9.58121,4.26994 -19.6449,6.86241 -7.99582,1.98247 -13.64804,4.26994 -16.95665,6.86241 -3.30862,2.43996 -4.96292,6.25242 -4.96292,11.43735 0,9.91237 5.51435,14.86856 16.54307,14.86856 z" />
    <path
       style="font-weight:600;font-size:176.238px;font-family:'Neue Haas Grotesk Display Pro';-inkscape-font-specification:'Neue Haas Grotesk Display Pro, Semi-Bold';fill:url(#linearGradient490);fill-opacity:1;fill-rule:evenodd;stroke:none;stroke-width:1.37673"
       d="m 366.81085,556.68078 -29.77754,-53.52682 -12.20051,13.95357 v 39.57325 H 296.91636 V 393.12665 h 27.91644 v 90.58382 l 37.63549,-44.37692 h 33.70651 l -39.08301,44.60567 43.83915,72.74156 z"
       id="path431"
       inkscape:label="path431" />
    <path
       style="font-weight:600;font-size:176.238px;font-family:'Neue Haas Grotesk Display Pro';-inkscape-font-specification:'Neue Haas Grotesk Display Pro, Semi-Bold';fill:url(#linearGradient482);fill-opacity:1;fill-rule:evenodd;stroke:none;stroke-width:1.37673"
       d="m 251.42295,439.33355 v 18.75726 h 0.62036 c 3.30862,-6.86242 6.96188,-11.89485 10.95979,-15.0973 3.99792,-3.35497 9.02976,-5.03244 15.09555,-5.03244 2.89504,0 5.10079,0.30499 6.61724,0.91498 v 27.22091 h -0.62038 c -9.51226,-1.0675 -17.16343,1.21997 -22.95351,6.86241 -5.79007,5.64242 -8.68511,14.48729 -8.68511,26.53464 v 57.18677 H 224.33367 V 439.33355 Z"
       id="path318"
       inkscape:label="path318" />
    <path
       id="text1"
       style="font-weight:600;font-size:176.238px;font-family:'Neue Haas Grotesk Display Pro';-inkscape-font-specification:'Neue Haas Grotesk Display Pro, Semi-Bold';opacity:1;fill:url(#linearGradient473);fill-opacity:1;fill-rule:nonzero;stroke:none;stroke-width:1.37723;stroke-dasharray:none;stroke-opacity:1"
       d="m 180.16852,556.68078 c -0.45108,-5.94512 -0.39458,-6.32867 -0.29423,-13.03859 h -0.41357 c -3.0329,5.03243 -6.89294,8.92113 -11.58015,11.6661 -4.68721,2.74496 -11.23551,4.11744 -19.6449,4.11744 -11.16657,0 -20.1274,-3.12621 -26.88249,-9.37863 -6.75509,-6.25241 -10.13264,-15.09729 -10.13264,-26.53464 0,-11.89485 3.7222,-20.58725 11.16658,-26.07717 7.44439,-5.64242 17.92166,-9.53113 31.43183,-11.6661 9.92585,-1.52498 16.68094,-3.04996 20.26527,-4.57494 3.58433,-1.67748 5.3765,-4.57493 5.3765,-8.69238 0,-4.26994 -1.51644,-7.6249 -4.54935,-10.06487 -3.0329,-2.59247 -7.44438,-3.8887 -13.23445,-3.8887 -12.82089,0 -19.64491,5.48992 -20.47206,16.46979 h -25.02139 c 0.41357,-11.13236 4.48041,-20.3585 12.20051,-27.67839 7.7201,-7.31991 18.88668,-10.97987 33.49973,-10.97987 29.77753,0 44.66628,14.41107 44.66628,43.2332 V 539.296 c 0,8.84488 0.54511,4.46851 0.70781,16.00794 l -0.23187,1.37684 z m -25.10884,-18.98601 c 7.7201,0 13.7859,-2.21122 18.19739,-6.63366 4.54934,-4.42245 6.82401,-9.68363 6.82401,-15.78355 v -17.61352 c -3.0329,1.98246 -9.5812,4.26994 -19.6449,6.86241 -7.99582,1.98247 -13.64803,4.26994 -16.95665,6.86241 -3.30862,2.43996 -4.96292,6.25242 -4.96292,11.43735 0,9.91237 5.51436,14.86856 16.54307,14.86856 z"
       sodipodi:nodetypes="cccsssscccscsccsssscccscscccss" />
  </g>
</svg>
